{"title":"Holy Rollers.2010.DvDRip.XviD.Feel-Free","uid":5869060,"size":1149269755,"categoryP":"video","categoryS":"movies","magnet":"?xt=urn:btih:c9e6b7afe26de195460b43d13c70f648470edd2c&amp;dn=Holy+Rollers.2010.DvDRip.XviD.Feel-Free&amp;tr=udp%3A%2F%2Ftracker.openbittorrent.com%3A80&amp;tr=udp%3A%2F%2Fopen.demonii.com%3A1337&amp;tr=udp%3A%2F%2Ftracker.coppersurfer.tk%3A6969&amp;tr=udp%3A%2F%2Fexodus.desync.com%3A6969","seeders":1,"leechers":0,"uploader":"neon","files":-1,"time":1286390730,"description":"Inspired by a true story of a young Hasidic man who was lured into the world of international drug trafficking in the late 90s\n\nGenre:Crime | Drama\nLanguage:English\n &lt;a href=&quot; http://www.imdb.com/title/tt1143896/&quot; rel=&quot;nofollow&quot; target=&quot;_NEW&quot;&gt; http://www.imdb.com/title/tt1143896/&lt;/a&gt;\nSource:DVD\n\nGeneral\nComplete name :Holy.Rollers.2010.DvDRip.XviD.Feel-Free\nFormat : AVI\nFormat/Info : Audio Video Interleave\nFile size : 1.07 GiB\nDuration : 1h 28mn\nOverall bit rate : 1 723 Kbps\nVideo #0\nMuxing mode : Packed bitstream\nCodec ID : XVID\nCodec ID/Hint : XviD\nDuration : 1h 28mn\nBit rate : 1 266 Kbps\nWidth : 652 pixels\nHeight : 352 pixels\nDisplay aspect ratio : 1.852\nFrame rate : 23.976 fps\nResolution : 24 bits\nColorimetry : 4:2:0\nScan type : Progressive\nBits/(Pixel*Frame) : 0.230\nStream size : 805 MiB (73%)\nWriting library : XviD 1.2.1 (UTC 2008-12-04)\nAudio #1\nID : 1\nFormat : AC-3\nFormat/Info : Audio Coding 3\nCodec ID : 2000\nDuration : 1h 28mn\nBit rate mode : Constant\nBit rate : 448 Kbps\nChannel(s) : 6 channels\nChannel positions : Front: L C R, Surround: L R, LFE\nSampling rate : 48.0 KHz\nStream size : 285 MiB (26%)\nAlignment : Split accross interleaves\nInterleave, duration : 42 ms (1.00 video frame)\nInterleave, preload duration : 500 ms\n","torrent":{"xt":"urn:btih:c9e6b7afe26de195460b43d13c70f648470edd2c","amp;dn":"Holy+Rollers.2010.DvDRip.XviD.Feel-Free","amp;tr":["udp%3A%2F%2Ftracker.openbittorrent.com%3A80","udp%3A%2F%2Fopen.demonii.com%3A1337","udp%3A%2F%2Ftracker.coppersurfer.tk%3A6969","udp%3A%2F%2Fexodus.desync.com%3A6969"],"infoHash":"c9e6b7afe26de195460b43d13c70f648470edd2c","infoHashBuffer":{"type":"Buffer","data":[201,230,183,175,226,109,225,149,70,11,67,209,60,112,246,72,71,14,221,44]},"announce":[],"urlList":[]}}